<?xml version="1.0" encoding="UTF-8"?>
<svg version="1.1" xmlns="http://www.w3.org/2000/svg" width="425" height="100">
<path d="M0 0 C140.25 0 280.5 0 425 0 C425 33 425 66 425 100 C284.75 100 144.5 100 0 100 C0 67 0 34 0 0 Z " fill="#000000" transform="translate(0,0)"/>
<path d="M0 0 C53.79 0 107.58 0 163 0 C163 33 163 66 163 100 C109.21 100 55.42 100 0 100 C0 67 0 34 0 0 Z " fill="#000000" transform="translate(262,0)"/>
<path d="M0 0 C33 0 66 0 100 0 C100 33 100 66 100 100 C67 100 34 100 0 100 C0 67 0 34 0 0 Z " fill="#FDFDFD" transform="translate(162,0)"/>
<path d="M0 0 C1.32 0 2.64 0 4 0 C5.25664978 2.90600261 6 4.79604584 6 8 C6.66 8 7.32 8 8 8 C8.66 5.69 9.32 3.38 10 1 C11.32 0.67 12.64 0.34 14 0 C14 4.29 14 8.58 14 13 C13.01 13 12.02 13 11 13 C10.67 11.68 10.34 10.36 10 9 C9.34 10.32 8.68 11.64 8 13 C7.34 13 6.68 13 6 13 C5.34 11.35 4.68 9.7 4 8 C3.67 9.65 3.34 11.3 3 13 C2.01 13 1.02 13 0 13 C0 8.71 0 4.42 0 0 Z " fill="#3C3C3C" transform="translate(201,40)"/>
<path d="M0 0 C1.859375 0.19140625 1.859375 0.19140625 4 1 C5.265625 3.21484375 5.265625 3.21484375 6.25 5.9375 C6.58515625 6.83339844 6.9203125 7.72929688 7.265625 8.65234375 C8 11 8 11 8 13 C7.01 13 6.02 13 5 13 C4.67 12.34 4.34 11.68 4 11 C1.47266765 10.34444881 1.47266765 10.34444881 -1 10 C-1 10.99 -1 11.98 -1 13 C-1.99 13 -2.98 13 -4 13 C-3.52343588 11.20763933 -3.04366502 9.41613103 -2.5625 7.625 C-2.29566406 6.62726562 -2.02882812 5.62953125 -1.75390625 4.6015625 C-1 2 -1 2 0 0 Z " fill="#252525" transform="translate(192,40)"/>
<path d="M0 0 C2.97 0 5.94 0 9 0 C9 0.99 9 1.98 9 3 C7.02 3 5.04 3 3 3 C3 3.99 3 4.98 3 6 C4.32 6.33 5.64 6.66 7 7 C5.68 7 4.36 7 3 7 C3 7.99 3 8.98 3 10 C4.98 10 6.96 10 9 10 C9 10.99 9 11.98 9 13 C6.03 13 3.06 13 0 13 C0 8.71 0 4.42 0 0 Z " fill="#7A96E8" transform="translate(227,40)"/>
<path d="M0 0 C0.66 0 1.32 0 2 0 C2.33 1.32 2.66 2.64 3 4 C3.99 2.68 4.98 1.36 6 0 C7.32 0.33 8.64 0.66 10 1 C9.319375 1.5775 8.63875 2.155 7.9375 2.75 C5.76692885 4.75808047 5.76692885 4.75808047 6.0625 7 C7.12170852 9.25964485 8.41857514 11.07478713 10 13 C8.68 13 7.36 13 6 13 C4.25 11 4.25 11 3 9 C2.67 9.99 2.34 10.98 2 12 C1.34 12 0.68 12 0 12 C0 8.04 0 4.08 0 0 Z " fill="#1B4CD7" transform="translate(238,40)"/>
<path d="M0 0 C0.59167969 0.08378906 1.18335938 0.16757812 1.79296875 0.25390625 C6.14930672 0.81532664 9.69716377 1.1064436 14 0 C15.32 0 16.64 0 18 0 C18 1.32 18 2.64 18 4 C11.73 4 5.46 4 -1 4 C-0.67 2.68 -0.34 1.36 0 0 Z " fill="#9A9A9A" transform="translate(222,55)"/>
<path d="M0 0 C0.33 0 0.66 0 1 0 C1 3.96 1 7.92 1 12 C1.66 12.33 2.32 12.66 3 13 C2.01 13 1.02 13 0 13 C-0.33 12.34 -0.66 11.68 -1 11 C-4.02934491 10.34227572 -4.02934491 10.34227572 -7 10 C-7 7.69 -7 5.38 -7 3 C-5.5459375 2.814375 -5.5459375 2.814375 -4.0625 2.625 C-2.5465625 2.315625 -2.5465625 2.315625 -1 2 C-0.67 1.34 -0.34 0.68 0 0 Z " fill="#D2DBF6" transform="translate(237,40)"/>
<path d="M0 0 C0.66 0 1.32 0 2 0 C2 4.29 2 8.58 2 13 C1.34 13 0.68 13 0 13 C0 11.02 0 9.04 0 7 C-1.98 7 -3.96 7 -6 7 C-6 8.65 -6 10.3 -6 12 C-6.66 12 -7.32 12 -8 12 C-8 8.37 -8 4.74 -8 1 C-7.34 1 -6.68 1 -6 1 C-6 2.32 -6 3.64 -6 5 C-4.02 5 -2.04 5 0 5 C0 3.35 0 1.7 0 0 Z " fill="#161616" transform="translate(184,40)"/>
<path d="M0 0 C4.62 0 9.24 0 14 0 C14.33 1.32 14.66 2.64 15 4 C11.9727394 5.00908687 10.64320022 5.00943814 7.5625 4.625 C6.80066406 4.53476562 6.03882813 4.44453125 5.25390625 4.3515625 C3.12357475 4.01927509 1.08100299 3.55935843 -1 3 C-0.67 2.01 -0.34 1.02 0 0 Z " fill="#B0B0B1" transform="translate(196,55)"/>
<path d="M0 0 C3.3 0 6.6 0 10 0 C10 0.66 10 1.32 10 2 C8.68 2 7.36 2 6 2 C6 5.63 6 9.26 6 13 C5.34 13 4.68 13 4 13 C4 9.37 4 5.74 4 2 C2.68 2 1.36 2 0 2 C0 1.34 0 0.68 0 0 Z " fill="#1E4CD8" transform="translate(216,40)"/>
<path d="M0 0 C2.31 0 4.62 0 7 0 C7 0.33 7 0.66 7 1 C5.35 1 3.7 1 2 1 C2 2.32 2 3.64 2 5 C3.32 5.33 4.64 5.66 6 6 C4.68 6 3.36 6 2 6 C2 7.32 2 8.64 2 10 C3.65 10 5.3 10 7 10 C7 10.33 7 10.66 7 11 C4.69 11 2.38 11 0 11 C0 7.37 0 3.74 0 0 Z " fill="#0734D2" transform="translate(228,41)"/>
<path d="M0 0 C0.78375 0.165 1.5675 0.33 2.375 0.5 C5.09522679 1.23945377 5.09522679 1.23945377 8 0 C8 1.32 8 2.64 8 4 C4.50765756 4.09978121 1.40562852 3.77842938 -2 3 C-1 1 -1 1 0 0 Z " fill="#8A8A8A" transform="translate(232,55)"/>
<path d="M0 0 C0.66 0 1.32 0 2 0 C2.103125 0.61875 2.20625 1.2375 2.3125 1.875 C2.87525373 4.36526484 2.87525373 4.36526484 6 6 C4.68 6 3.36 6 2 6 C2 7.65 2 9.3 2 11 C1.34 11 0.68 11 0 11 C0 7.37 0 3.74 0 0 Z " fill="#010101" transform="translate(176,41)"/>
<path d="M0 0 C1.65 0.33 3.3 0.66 5 1 C5 1.99 5 2.98 5 4 C3.35 4 1.7 4 0 4 C0 2.68 0 1.36 0 0 Z " fill="#8C8C8C" transform="translate(196,55)"/>
<path d="M0 0 C0.99 0 1.98 0 3 0 C3 3.63 3 7.26 3 11 C2.67 11 2.34 11 2 11 C1.67 9.02 1.34 7.04 1 5 C0.67 5 0.34 5 0 5 C0 3.35 0 1.7 0 0 Z " fill="#030303" transform="translate(211,41)"/>
<path d="M0 0 C0.99 0 1.98 0 3 0 C3 1.65 3 3.3 3 5 C1.35 4.67 -0.3 4.34 -2 4 C-1.34 2.68 -0.68 1.36 0 0 Z " fill="#79797A" transform="translate(192,43)"/>
<path d="M0 0 C0.66 0 1.32 0 2 0 C2 0.66 2 1.32 2 2 C3.65 1.34 5.3 0.68 7 0 C7 1.32 7 2.64 7 4 C4.69 4 2.38 4 0 4 C0 2.68 0 1.36 0 0 Z " fill="#9B9B9C" transform="translate(213,55)"/>
<path d="M0 0 C1.65 0 3.3 0 5 0 C4.34 1.32 3.68 2.64 3 4 C1.68 4 0.36 4 -1 4 C-0.67 2.68 -0.34 1.36 0 0 Z " fill="#A7A7A7" transform="translate(186,55)"/>
</svg>
